<svg id="floppy" xmlns="http://www.w3.org/2000/svg">

  <path d="M0 0h2.154v2.154H0zm0 2.154h2.154v2.154H0zm0 2.154h2.154v2.154H0zm0 2.154h2.154v2.154H0z"/>
  <path d="M0 8.615h2.154v2.154H0zm0 2.154h2.154v2.154H0zm0 2.154h2.154v2.154H0zm0 2.154h2.154v2.154H0zm0 2.154h2.154v2.154H0zm0 2.154h2.154v2.154H0z"/>
  <path d="M0 21.538h2.154v2.154H0zm0 2.154h2.154v2.154H0zm0 2.154h2.154V28H0zM23.693 0v2.154h-2.154V0z"/>
  <path d="M21.54-.001v2.154h-2.154V-.001zM19.384 0v2.154H17.23V0zM17.23 0v2.154h-2.154V0z"/>
  <path d="M15.077 0v2.154h-2.154V0zm-2.154 0v2.154h-2.154V0z"/>
  <path d="M10.77 0v2.154H8.616V0zM8.616 0v2.154H6.462V0zM6.46.001v2.154H4.306V.001z"/>
  <path d="M4.307 0v2.154H2.153V0zm21.539 2.154v2.154h-2.154V2.154zM6.46 4.309v2.154H4.306V4.309zm0-2.154v2.154H4.306V2.155zm0 4.308v2.154H4.306V6.463zm15.08-2.156v2.154h-2.154V4.307zm0-2.154v2.154h-2.154V2.153zm0 4.308v2.154h-2.154V6.461zm-4.31-2.153v2.154h-2.154V4.308zm0-2.154v2.154h-2.154V2.154zm0 4.308v2.154h-2.154V6.462z"/>
  <path d="M21.54 8.614v2.154h-2.154V8.614zm-2.156.001v2.154H17.23V8.615zm-2.154 0v2.154h-2.154V8.615z"/>
  <path d="M15.077 8.615v2.154h-2.154V8.615zm-2.154 0v2.154h-2.154V8.615z"/>
  <path d="M10.77 8.615v2.154H8.616V8.615zm-2.154 0v2.154H6.462V8.615zm-2.156.001v2.154H4.306V8.616zm17.233 6.461v2.154h-2.154v-2.154z"/>
  <path d="M21.54 15.076v2.154h-2.154v-2.154zm-2.156.001v2.154H17.23v-2.154zm-2.154 0v2.154h-2.154v-2.154z"/>
  <path d="M15.077 15.077v2.154h-2.154v-2.154zm-2.154 0v2.154h-2.154v-2.154z"/>
  <path d="M10.77 15.077v2.154H8.616v-2.154zm-2.154 0v2.154H6.462v-2.154zm-2.156.001v2.154H4.306v-2.154zm17.232 2.152v2.154h-2.154V17.23z"/>
  <path d="M6.459 17.231v2.154H4.305v-2.154zm17.234 2.154v2.154h-2.154v-2.154zm-17.233.001v2.154H4.306v-2.154z"/>
  <path d="M23.693 21.538v2.154h-2.154v-2.154zm-17.233.001v2.154H4.306v-2.154zm0 2.154v2.154H4.306v-2.154zm17.233-.001v2.154h-2.154v-2.154zm2.153 2.154V28h-2.154v-2.154z"/>
  <path d="M23.693 25.846V28h-2.154v-2.154z"/>
  <path d="M21.54 25.845v2.154h-2.154v-2.154zm-2.156.001V28H17.23v-2.154zm-2.154 0V28h-2.154v-2.154z"/>
  <path d="M15.077 25.846V28h-2.154v-2.154zm-2.154 0V28h-2.154v-2.154z"/>
  <path d="M10.77 25.846V28H8.616v-2.154zm-2.154 0V28H6.462v-2.154zm-2.156.001v2.154H4.306v-2.154z"/>
  <path d="M4.307 25.846V28H2.153v-2.154zM28 28h-2.154v-2.154H28zm0-2.154h-2.154v-2.154H28zm0-2.154h-2.154v-2.154H28zm0-2.154h-2.154v-2.154H28z"/>
  <path d="M28 19.385h-2.154v-2.154H28zm0-2.156h-2.154v-2.154H28z"/>
  <path d="M28 15.077h-2.154v-2.154H28zm0-2.154h-2.154v-2.154H28z"/>
  <path d="M28 10.771h-2.154V8.617H28zm0-2.156h-2.154V6.461H28z"/>
  <path d="M28 6.462h-2.154V4.308H28z"/>
</svg>
